<?xml version="1.0" encoding="utf-8"?>
<!DOCTYPE svg PUBLIC "-//W3C//DTD SVG 1.1//EN" "http://www.w3.org/Graphics/SVG/1.1/DTD/svg11.dtd">
<svg xmlns="http://www.w3.org/2000/svg" xmlns:xlink="http://www.w3.org/1999/xlink" version="1.1" baseProfile="full" width="53.0556" height="53.3664" viewBox="0 0 53.06 53.37" enable-background="new 0 0 53.06 53.37" xml:space="preserve">
	<path fill="#32C5F4" fill-opacity="1" fill-rule="evenodd" stroke-width="0.2" stroke-linejoin="round" d="M 16.0112,36.5834C 16.9496,36.2137 17.7546,35.6967 18.4304,35.0263C 19.1049,34.36 19.6252,33.559 19.9928,32.6225C 20.3625,31.6839 20.5456,30.6361 20.5456,29.4805L 20.5456,24.2153C 20.5456,23.0722 20.3625,22.032 19.9928,21.0858C 19.6252,20.1389 19.1049,19.3358 18.4304,18.6654C 17.7546,18.0012 16.9496,17.4801 16.0112,17.1124C 15.0729,16.7468 14.035,16.5616 12.8941,16.5616L 1.76482,16.5616C 0.900375,18.6654 0.301971,20.9082 0,23.2408L 0,30.1247C 0.315796,32.5789 0.959808,34.933 1.89612,37.1322L 12.8941,37.1322C 14.035,37.1322 15.0729,36.9491 16.0112,36.5834 Z M 32.9391,17.5741C 32.3186,18.248 32.0063,19.141 32.0063,20.2523C 32.0063,21.3775 32.3186,22.265 32.9391,22.9188C 33.5631,23.5733 34.4303,23.8968 35.5394,23.8968L 48.996,23.8968L 49.0423,23.8968C 49.6718,23.9134 50.34,24.0005 51.0462,24.1573C 51.7178,24.3087 52.3895,24.5416 53.0556,24.8512C 52.8566,21.9346 52.1905,19.1465 51.1312,16.5616L 35.5394,16.5616C 34.4303,16.5616 33.5631,16.8975 32.9391,17.5741 Z M 26.4262,42.9861L 26.4262,37.132L 48.9965,37.132C 49.9383,37.132 50.6922,36.8873 51.2823,36.4264C 51.7653,35.1913 52.1613,33.9112 52.4591,32.5925C 52.4197,32.39 52.3741,32.1889 52.3064,32.0016C 52.1412,31.551 51.9028,31.1632 51.5967,30.8329C 51.2885,30.4991 50.9106,30.244 50.469,30.0692C 50.0281,29.886 49.5389,29.7948 48.9965,29.7948L 35.5392,29.7948C 34.5953,29.7948 33.5733,29.6275 32.4815,29.2902C 31.3842,28.9495 30.3684,28.4069 29.43,27.655C 28.4937,26.9058 27.7122,25.925 27.0924,24.7086C 26.4663,23.4936 26.1561,22.0062 26.1561,20.252C 26.1561,18.4986 26.4663,17.0154 27.0924,15.8087C 27.7122,14.5992 28.4937,13.617 29.43,12.8595C 30.3684,12.1013 31.3842,11.5533 32.4815,11.2166C 33.5733,10.8787 34.5953,10.7101 35.5392,10.7101L 47.8176,10.7101C 42.9529,4.20773 35.1916,0 26.4483,0C 17.7065,0 9.94582,4.20773 5.07909,10.7101L 12.8943,10.7101C 14.8284,10.7101 16.623,11.046 18.2738,11.724C 19.9211,12.3979 21.3446,13.333 22.5476,14.5238C 23.7465,15.7167 24.6891,17.1426 25.3704,18.8027C 26.0545,20.4594 26.3965,22.2626 26.3965,24.2151L 26.3965,29.4803C 26.3965,31.4473 26.0545,33.2526 25.3704,34.9072C 24.6891,36.5556 23.7465,37.9773 22.5476,39.1688C 21.3446,40.3638 19.9211,41.2982 18.2738,41.9721C 16.623,42.6481 14.8284,42.9861 12.8943,42.9861L 5.33751,42.9861C 10.216,49.2976 17.8537,53.3664 26.4483,53.3664C 35.0424,53.3664 42.68,49.2976 47.5592,42.9861L 26.4262,42.9861 Z "/>
</svg>
